<svg width="38" height="23" viewBox="0 0 38 23" fill="none" xmlns="http://www.w3.org/2000/svg">
<path fill-rule="evenodd" clip-rule="evenodd" d="M19.9338 2.14569C19.8424 2.06976 19.7461 1.99383 19.6498 1.92035C21.5015 0.705439 23.7284 7.62939e-06 26.1183 7.62939e-06C32.5695 7.62939e-06 37.7986 5.14623 37.7986 11.4976C37.7986 17.8489 32.5695 22.9976 26.1183 22.9976C23.7284 22.9976 21.5015 22.2897 19.6548 21.0772C19.7486 20.9988 19.8424 20.9254 19.914 20.8445C22.6792 18.4931 24.2617 15.0835 24.2617 11.4976C24.2617 7.91407 22.6866 4.50448 19.9338 2.14569ZM2.28882e-05 11.4976C2.28882e-05 5.14623 5.22911 7.62939e-06 11.6803 7.62939e-06C14.0726 7.62939e-06 16.2971 0.705439 18.1488 1.92035C18.0525 1.99383 17.9562 2.06976 17.8648 2.14569C15.112 4.50938 13.5369 7.91651 13.5369 11.4976C13.5369 15.0835 15.1194 18.4931 17.8846 20.8445C17.9562 20.9254 18.05 20.9988 18.1438 21.0772C16.2971 22.2897 14.0726 22.9976 11.6803 22.9976C5.22911 22.9976 2.28882e-05 17.8464 2.28882e-05 11.4976ZM18.4574 20.1734C15.9959 18.0669 14.4405 14.9635 14.4405 11.4976C14.4405 8.03164 15.9959 4.93068 18.4574 2.82173C18.6006 2.69926 18.7487 2.57679 18.8993 2.46167C19.0499 2.57679 19.198 2.69926 19.3412 2.82173C21.8027 4.93068 23.3581 8.03164 23.3581 11.4976C23.3581 14.9635 21.8027 18.0669 19.3412 20.1734C19.198 20.2983 19.0499 20.4159 18.8993 20.531C18.7487 20.4159 18.6006 20.2983 18.4574 20.1734Z" fill="white"/>
</svg>
