<svg width="61" height="19" viewBox="0 0 61 19" fill="none" xmlns="http://www.w3.org/2000/svg">
<path fill-rule="evenodd" clip-rule="evenodd" d="M39.2437 0C41.9833 0 43.9261 0.813815 43.9261 0.813815L43.0621 4.69179C43.0621 4.69179 41.2765 3.81391 39.088 3.81391C37.1486 3.81391 36.2134 4.64237 36.2134 5.39834C36.2134 7.52605 43.0221 7.83173 43.0221 12.6535C43.0221 16.7002 39.3417 18.9594 34.6645 18.9594C31.5088 18.9594 29.1318 17.9398 29.1318 17.9398L30.0146 13.9245C30.0146 13.9245 32.078 15.1319 34.8387 15.1319C36.7837 15.1319 37.9228 14.2679 37.9228 13.3026C37.9228 11.0105 31.1424 10.6953 31.1424 6.13235C31.1424 2.1537 34.9653 0 39.2437 0ZM0.10366 0.292505H8.27053C9.44999 0.292505 10.4135 0.98368 10.6038 2.19507L12.6778 12.7791L17.7609 0.292505H22.8835L14.9734 18.6577H9.83862L6.00811 4.31692C5.6568 2.99387 5.50791 2.56775 3.42077 1.83593C1.79991 1.19784 0 0.877881 0 0.877881L0.10366 0.292505ZM24.9435 0.292505H29.8148L25.8101 18.6577H20.9249L24.9435 0.292505ZM52.1898 0.292505H56.3072L60.2508 18.6577H55.7304L55.1277 15.8773H48.8866L47.8957 18.6577H42.7726L49.9297 1.97541C50.3876 0.905337 51.0119 0.292505 52.1898 0.292505ZM52.8559 5.25447L50.3062 12.1457H54.3746L52.8559 5.25447Z" fill="white"/>
</svg>
