<svg width="173" height="37" viewBox="0 0 173 37" fill="none" xmlns="http://www.w3.org/2000/svg">
<path fill-rule="evenodd" clip-rule="evenodd" d="M125.482 4.71168C128.538 4.71169 131.327 5.34598 133.848 6.61445C135.753 7.54368 137.364 8.81311 138.68 10.4224C138.057 11.0926 137.493 11.8176 136.988 12.5978C135.424 15.0191 134.641 17.7998 134.641 20.9398C134.641 21.8655 134.71 22.7602 134.846 23.6234H119.361C119.511 24.1815 119.717 24.7005 119.981 25.1802C120.63 26.2949 121.547 27.1597 122.731 27.7747C123.916 28.3513 125.329 28.6398 126.972 28.6398C128.5 28.6398 129.799 28.4283 130.869 28.0055C131.937 27.5608 134.265 26.7945 135.389 25.9135C135.774 27.1044 136.307 28.2272 136.988 29.2817C137.73 30.4301 138.602 31.4635 139.601 32.382C138.16 33.8785 136.415 34.899 134.364 35.7316C132.187 36.5772 129.608 37 126.628 37C122.96 37 119.751 36.3081 117.001 34.9244C114.288 33.5022 112.168 31.5802 110.64 29.1586C109.15 26.6986 108.405 23.9117 108.405 20.7982C108.405 17.6848 109.131 14.9172 110.583 12.4956C112.073 10.0356 114.117 8.13268 116.714 6.78733C119.312 5.40358 122.235 4.71168 125.482 4.71168ZM125.539 12.4956C124.24 12.4956 123.094 12.7839 122.101 13.3605C121.146 13.937 120.401 14.7635 119.866 15.8397C119.553 16.4466 119.332 17.1194 119.202 17.8577H131.914C131.79 17.0967 131.556 16.4048 131.212 15.7821C130.677 14.7443 129.913 13.937 128.92 13.3605C127.965 12.7839 126.838 12.4956 125.539 12.4956Z" fill="#DCF260"/>
<path d="M0 0C0 0 4.57983 4.61931 10.3617 4.67624V26.7281C10.3814 26.7362 17.8126 29.7886 24.3824 26.7281C24.6687 27.9766 24.9934 29.1999 25.4863 30.2214C25.9791 31.2428 27.0319 32.786 28.1768 33.8642C29.3581 34.9766 30.3523 35.8078 32.7566 36.8861H0V0Z" fill="#DCF260"/>
<path d="M62.1128 12.2573L62.4236 11.6332C63.6067 9.2876 65.1907 7.54717 67.1752 6.41221C69.1597 5.23945 71.3733 4.65297 73.8158 4.65297C76.5636 4.65297 78.9871 5.3719 81.0862 6.80951C82.0901 7.46704 82.9381 8.3083 83.6304 9.33312C84.438 8.3798 85.3643 7.55734 86.4101 6.86627C88.6236 5.39082 91.1807 4.65297 94.0812 4.65297C96.4474 4.65298 98.5655 5.14503 100.436 6.12865C102.344 7.07444 103.832 8.56867 104.901 10.6116C106.008 12.6545 106.561 15.3027 106.561 18.5562V36.8858H93.6232V20.7695C93.6232 18.8401 93.2988 17.4782 92.6501 16.6837C92.0013 15.8514 91.1615 15.4352 90.131 15.4352C89.3678 15.4353 88.6809 15.6243 88.0703 16.0026C87.4596 16.3809 86.9635 16.9863 86.5818 17.8186C86.2383 18.6131 86.0665 19.7103 86.0665 21.1101V36.8858H73.1287V20.7695C73.1287 18.8401 72.8235 17.4781 72.2128 16.6837C71.6022 15.8514 70.7435 15.4352 69.6368 15.4352C68.8735 15.4352 68.1864 15.6243 67.5758 16.0026C66.9652 16.3809 66.469 16.9863 66.0874 17.8186C65.7439 18.6131 65.5723 19.7103 65.5723 21.1101V36.8858L48.4416 36.8861L50.9034 29.7925C49.7966 32.2138 48.2127 34.0108 46.1518 35.1836C44.1291 36.3185 41.9347 36.886 39.5685 36.8861C37.0878 36.8861 34.8359 36.3942 32.8132 35.4106C30.8287 34.3891 29.2641 32.819 28.1191 30.7004C26.9742 28.544 26.4017 25.7823 26.4017 22.4152V4.70973H39.3395V20.2022C39.3395 22.3963 39.7021 23.9285 40.4271 24.7986C41.1523 25.6687 42.1446 26.104 43.404 26.104C44.1673 26.104 44.8734 25.9147 45.5222 25.5364C46.2092 25.1203 46.7624 24.4581 47.1822 23.5502C47.602 22.6044 47.812 21.3749 47.812 19.8616V4.65297L64.9425 4.65275L62.1128 12.2573Z" fill="#DCF260"/>
<path fill-rule="evenodd" clip-rule="evenodd" d="M154.796 4.65362C158.345 4.65362 161.493 5.3345 164.241 6.69643C166.989 8.05838 169.126 9.95 170.653 12.3712C172.218 14.7925 173 17.5732 173 20.7132C173 23.8532 172.218 26.6339 170.653 29.0551C169.126 31.4764 166.989 33.3869 164.241 34.7867C161.493 36.1486 158.345 36.8295 154.796 36.8295C151.246 36.8295 148.098 36.1486 145.35 34.7867C142.64 33.3869 140.503 31.4764 138.938 29.0551C137.373 26.6339 136.591 23.8532 136.591 20.7132C136.591 17.5732 137.373 14.7925 138.938 12.3712C140.503 9.95 142.64 8.05838 145.35 6.69643C148.098 5.33449 151.246 4.65363 154.796 4.65362ZM154.796 14.6411C153.841 14.6411 152.983 14.8682 152.219 15.3222C151.456 15.7761 150.845 16.457 150.388 17.365C149.93 18.2351 149.701 19.3512 149.701 20.7132C149.701 22.0373 149.93 23.1722 150.388 24.1179C150.845 25.0259 151.456 25.707 152.219 26.161C152.983 26.6149 153.841 26.8418 154.796 26.8418C155.75 26.8418 156.608 26.6149 157.372 26.161C158.135 25.707 158.746 25.0259 159.204 24.1179C159.662 23.1722 159.89 22.0373 159.89 20.7132C159.89 19.3512 159.662 18.2351 159.204 17.365C158.746 16.457 158.135 15.7761 157.372 15.3222C156.608 14.8682 155.75 14.6411 154.796 14.6411Z" fill="#DCF260"/>
</svg>
