<svg width="20" height="24" viewBox="0 0 20 24" fill="none" xmlns="http://www.w3.org/2000/svg">
<path fill-rule="evenodd" clip-rule="evenodd" d="M12.5168 20.1323C13.1846 20.0653 13.6358 20.7742 13.3203 21.348C13.098 21.7523 12.7847 22.1053 12.4094 22.3943C12.0267 22.6891 11.5826 22.9153 11.1063 23.0671C10.6297 23.2192 10.1237 23.2962 9.61585 23.2962C9.10799 23.2962 8.60196 23.2192 8.1254 23.0671C7.64906 22.9153 7.20504 22.6891 6.82233 22.3943C6.447 22.1053 6.13367 21.7523 5.91142 21.348C5.59597 20.7742 6.04716 20.0653 6.71495 20.1323C6.92322 20.1532 8.55321 20.3126 9.61585 20.3126C10.6785 20.3126 12.3085 20.1532 12.5168 20.1323Z" fill="white"/>
<path fill-rule="evenodd" clip-rule="evenodd" d="M13.5354 0.800933C11.0483 -0.303816 8.17392 -0.263897 5.72104 0.909461C3.28141 2.07646 1.73908 4.47022 1.73908 7.08964V8.46941C1.73908 9.69589 1.42114 10.903 0.813999 11.9818L0.568039 12.4187C-0.945778 15.1084 0.709252 18.4354 3.83759 18.9911C7.6563 19.6696 11.5721 19.6696 15.3909 18.9911L15.5649 18.9602C18.6517 18.4117 20.3715 15.2121 19.0509 12.4747L18.7634 11.8787C18.2819 10.8807 18.0325 9.79382 18.0325 8.69367V7.32502C18.0325 4.56533 16.3639 2.05727 13.7577 0.899668L13.5354 0.800933ZM7.04167 13.8124C6.59293 13.8124 6.22917 14.1762 6.22917 14.6249C6.22917 15.0738 6.59293 15.4374 7.04167 15.4374H12.4583C12.9071 15.4374 13.2708 15.0738 13.2708 14.6249C13.2708 14.1762 12.9071 13.8124 12.4583 13.8124H7.04167Z" fill="white"/>
</svg>
