<svg width="28" height="30" viewBox="0 0 28 30" fill="none" xmlns="http://www.w3.org/2000/svg">
<path d="M2 12.728C0.895431 12.728 9.65645e-08 13.6235 0 14.728C-9.65645e-08 15.8326 0.89543 16.728 2 16.728L2 14.728L2 12.728ZM27.4142 16.1422C28.1953 15.3612 28.1953 14.0949 27.4142 13.3138L14.6863 0.585893C13.9052 -0.195156 12.6389 -0.195156 11.8579 0.585893C11.0768 1.36694 11.0768 2.63327 11.8579 3.41432L23.1716 14.728L11.8579 26.0417C11.0768 26.8228 11.0768 28.0891 11.8579 28.8702C12.6389 29.6512 13.9052 29.6512 14.6863 28.8702L27.4142 16.1422ZM2 14.728L2 16.728L26 16.728L26 14.728L26 12.728L2 12.728L2 14.728Z" fill="white"/>
</svg>
