<svg width="24" height="24" viewBox="0 0 24 24" fill="none" xmlns="http://www.w3.org/2000/svg">
<g opacity="0.8">
<path opacity="0.7" fill-rule="evenodd" clip-rule="evenodd" d="M12 7.42857C12 7.02514 12.0864 6.28571 12.2208 6.28571H0V8.57143H12.2208C12.0864 8.57143 12 7.832 12 7.42857ZM21.3792 6.28571C20.8836 5.14286 19.5648 4 18 4C16.0116 4 14.4 5.53486 14.4 7.42857C14.4 9.32229 16.0116 10.8571 18 10.8571C19.5648 10.8571 20.8836 9.71429 21.3792 8.57143H24V6.28571H21.3792ZM12 16.5714C12 16.9749 11.9136 17.3554 11.7792 17.7143H24V15.4286H11.7792C11.9136 15.4286 12 16.168 12 16.5714ZM9.6 16.5714C9.6 18.4651 7.9884 20 6 20C4.4352 20 3.1164 18.8571 2.6208 17.7143H0V15.4286H2.6208C3.1164 14.2857 4.4352 13.1429 6 13.1429C7.9884 13.1429 9.6 14.6777 9.6 16.5714Z" fill="white"/>
</g>
</svg>
